<svg id="b3712bca-dc6c-4e8d-81d3-91001ed1b789" data-name="Layer 1" xmlns="http://www.w3.org/2000/svg" viewBox="0 0 1024 325.05"><defs><style>.ed77ad7c-38f0-493e-9ab8-8cd274126a6e{fill:#ed0080;}.e4283862-b5b4-42cf-a11f-2465aa9fc5c7{fill:#8dc63f;}</style></defs><title>High Res Logo</title><path class="ed77ad7c-38f0-493e-9ab8-8cd274126a6e" d="M880.39,3.57H868.68L797.34,116.26h61v24h22v-24h15.09V93.19H880.39Zm-22,89.62-22.54.18L858.39,55Z"/><path class="ed77ad7c-38f0-493e-9ab8-8cd274126a6e" d="M974.8,60.36V83.43h27.68v26.09a44.49,44.49,0,0,1-13.31,6.83,48.44,48.44,0,0,1-14.55,2.22,46,46,0,0,1-18.28-3.64A46.84,46.84,0,0,1,931.41,90a46.85,46.85,0,0,1,0-36.21,46.84,46.84,0,0,1,24.93-24.93,47.31,47.31,0,0,1,35.76-.26,47,47,0,0,1,15,9.58l16.5-16.51A73.23,73.23,0,0,0,1001,6.94a70.41,70.41,0,0,0-53.69.36,72.06,72.06,0,0,0-22.36,15,70,70,0,0,0-15.08,22.28,68.27,68.27,0,0,0-5.5,27.33,68.25,68.25,0,0,0,5.5,27.32,69.82,69.82,0,0,0,15.08,22.27,71.74,71.74,0,0,0,22.36,15,70.41,70.41,0,0,0,53.69.36,73.41,73.41,0,0,0,22.62-14.73l.36-1.07V60.36Z"/><polygon class="e4283862-b5b4-42cf-a11f-2465aa9fc5c7" points="6.28 36.05 108.14 36.05 0 182.99 0 200.94 165.6 200.94 165.6 169.43 54.32 169.43 159.81 21.86 159.95 21.82 159.95 21.65 159.99 21.6 159.95 21.61 159.95 3.48 6.28 3.48 6.28 36.05"/><path class="e4283862-b5b4-42cf-a11f-2465aa9fc5c7" d="M434.38,39.89h57c20.9-.23,38.25,8.94,36.65,37.33V200.94h37V72.44c.28-50.29-33.22-68.92-69.47-69h-100V200.94h38.83Z"/><path class="e4283862-b5b4-42cf-a11f-2465aa9fc5c7" d="M580.21,102.67c0,56.55,51.09,102.67,113.73,102.67a121.77,121.77,0,0,0,63.83-17.77l.29-.17V106.75H720.75v61A84.08,84.08,0,0,1,697,171.18c-42.53,0-77.22-31.31-77.22-69.7S654.48,31.77,697,31.77a82.28,82.28,0,0,1,46.33,14L758.06,18A121.62,121.62,0,0,0,693.94,0C631.3,0,580.21,46.12,580.21,102.67"/><path class="e4283862-b5b4-42cf-a11f-2465aa9fc5c7" d="M378.1,102.87a102.87,102.87,0,0,0-205.74,0c0,53.81,41.69,98.17,94.41,102.5V169.1a66.82,66.82,0,1,1,16.93,0v36.27c52.71-4.33,94.4-48.69,94.4-102.5"/><path class="ed77ad7c-38f0-493e-9ab8-8cd274126a6e" d="M434.06,324.25H395.63V262.59H406v51.25h28Z"/><path class="ed77ad7c-38f0-493e-9ab8-8cd274126a6e" d="M475.22,324.25H436.79V262.59h38.43V273h-28v15.22H472v10.4H447.19v15.22h28Z"/><path class="ed77ad7c-38f0-493e-9ab8-8cd274126a6e" d="M520.06,273H504.28v51.25h-10.4V273H478V262.59h42Z"/><path class="ed77ad7c-38f0-493e-9ab8-8cd274126a6e" d="M535.91,262.59l-3.2,23.78h-9.05V262.59Z"/><path class="ed77ad7c-38f0-493e-9ab8-8cd274126a6e" d="M573.06,307.19a16.56,16.56,0,0,1-1.68,7.57,17.18,17.18,0,0,1-4.48,5.6,20.08,20.08,0,0,1-6.49,3.49,24.65,24.65,0,0,1-7.69,1.2,18.15,18.15,0,0,1-11.53-3.77,20.64,20.64,0,0,1-6.88-10l8.81-3.93a11.76,11.76,0,0,0,3,4.85,10.42,10.42,0,0,0,4,2.36,9.77,9.77,0,0,0,4.4.28,11.79,11.79,0,0,0,4.05-1.4,8.88,8.88,0,0,0,2.92-2.69,6.15,6.15,0,0,0,1.12-3.56,5.4,5.4,0,0,0-1.84-4.16,24.07,24.07,0,0,0-4.64-3.21q-2.8-1.51-6-3.08a31.5,31.5,0,0,1-6-3.8,19.24,19.24,0,0,1-4.65-5.41,15.39,15.39,0,0,1-1.84-7.88,17.73,17.73,0,0,1,1.32-6.81,18.33,18.33,0,0,1,3.68-5.68,17.65,17.65,0,0,1,5.53-3.93,16.13,16.13,0,0,1,6.77-1.44A17.75,17.75,0,0,1,565,264.67a18.48,18.48,0,0,1,6.65,8.17l-9,4.17a8.5,8.5,0,0,0-4.12-4.37,8,8,0,0,0-5.09-.6A8.34,8.34,0,0,0,549,274.6a7.17,7.17,0,0,0-1.84,5,5.23,5.23,0,0,0,1.92,4.08,22.47,22.47,0,0,0,4.81,3.12c1.92,1,4,2,6.2,3a35.32,35.32,0,0,1,6.21,3.84,19.48,19.48,0,0,1,4.8,5.48A15.42,15.42,0,0,1,573.06,307.19Z"/><path class="ed77ad7c-38f0-493e-9ab8-8cd274126a6e" d="M649.85,315.6l-.16.48a33.23,33.23,0,0,1-10.21,6.65,31.14,31.14,0,0,1-11.89,2.32,30.74,30.74,0,0,1-12.33-2.49,32.28,32.28,0,0,1-10.09-6.76,31.79,31.79,0,0,1-6.81-10.05,31.89,31.89,0,0,1,0-24.66,31.79,31.79,0,0,1,6.81-10,32.28,32.28,0,0,1,10.09-6.76,30.74,30.74,0,0,1,12.33-2.49,31.14,31.14,0,0,1,11.89,2.32,33.23,33.23,0,0,1,10.21,6.65l-7.45,7.45a21.34,21.34,0,0,0-6.77-4.33,21.08,21.08,0,0,0-7.88-1.52,20.84,20.84,0,0,0-8.25,1.64,21.21,21.21,0,0,0-11.25,11.25,21.17,21.17,0,0,0,0,16.34,21,21,0,0,0,4.53,6.72,21.29,21.29,0,0,0,6.72,4.53,20.84,20.84,0,0,0,8.25,1.64,22.06,22.06,0,0,0,6.56-1,20.07,20.07,0,0,0,6-3.09V298.62H627.67v-10.4h22.18Z"/><path class="ed77ad7c-38f0-493e-9ab8-8cd274126a6e" d="M691.88,324.25H653.45V262.59h38.43V273h-28v15.22h24.82v10.4H663.86v15.22h28Z"/><path class="ed77ad7c-38f0-493e-9ab8-8cd274126a6e" d="M736.72,273H721v51.25H710.54V273H694.68V262.59h42Z"/><path class="ed77ad7c-38f0-493e-9ab8-8cd274126a6e" d="M809.9,293.42a30.2,30.2,0,0,1-2.4,12,30.88,30.88,0,0,1-16.41,16.41,30,30,0,0,1-12,2.41H761.14V262.59h17.94a30,30,0,0,1,12,2.41,30.88,30.88,0,0,1,16.41,16.41A30.2,30.2,0,0,1,809.9,293.42Zm-10.41,0a19.94,19.94,0,0,0-1.6-8A20.38,20.38,0,0,0,787,274.6a20.07,20.07,0,0,0-8-1.6h-7.53v40.84h7.53a20.07,20.07,0,0,0,8-1.6,20.38,20.38,0,0,0,10.85-10.85A19.91,19.91,0,0,0,799.49,293.42Z"/><path class="ed77ad7c-38f0-493e-9ab8-8cd274126a6e" d="M824.31,324.25H813.9V262.59h10.41Z"/><path class="ed77ad7c-38f0-493e-9ab8-8cd274126a6e" d="M882.28,315.6l-.16.48a33,33,0,0,1-10.21,6.65A31.1,31.1,0,0,1,860,325.05a30.77,30.77,0,0,1-12.33-2.49,32.39,32.39,0,0,1-10.09-6.76,31.6,31.6,0,0,1-6.8-10.05,31.89,31.89,0,0,1,0-24.66,31.6,31.6,0,0,1,6.8-10,32.39,32.39,0,0,1,10.09-6.76A30.77,30.77,0,0,1,860,261.79a31.1,31.1,0,0,1,11.89,2.32,33,33,0,0,1,10.21,6.65l-7.45,7.45A21.3,21.3,0,0,0,860,272.36a20.91,20.91,0,0,0-8.25,1.64,21.14,21.14,0,0,0-11.24,11.25,21.05,21.05,0,0,0,0,16.34A21,21,0,0,0,860,314.48a22.18,22.18,0,0,0,6.57-1,20.14,20.14,0,0,0,6-3.09V298.62H860.1v-10.4h22.18Z"/><path class="ed77ad7c-38f0-493e-9ab8-8cd274126a6e" d="M896.29,324.25H885.88V262.59h10.41Z"/><path class="ed77ad7c-38f0-493e-9ab8-8cd274126a6e" d="M941.13,273H925.36v51.25H915V273H899.09V262.59h42Z"/><path class="ed77ad7c-38f0-493e-9ab8-8cd274126a6e" d="M984,324.25H972.6L968,313.84H943.85l-4.56,10.41H927.92l28-64.06Zm-20.5-20.82-7.53-17.3-7.52,17.3Z"/><path class="ed77ad7c-38f0-493e-9ab8-8cd274126a6e" d="M1024,324.25H985.57V262.59H996v51.25h28Z"/></svg>